<?xml version="1.0" encoding="UTF-8"?>
<svg id="Layer_2" data-name="Layer 2" xmlns="http://www.w3.org/2000/svg" viewBox="0 0 190.14 109.87">
  <defs>
    <style>
      .cls-1 {
        fill: #f4f9ec;
        stroke-width: 0px;
      }
    </style>
  </defs>
  <g id="Layer_1-2" data-name="Layer 1">
    <g>
      <path class="cls-1" d="M118.35,82.66c0-7.76-3.17-14.77-8.29-19.83.39-.19.79-.36,1.22-.54-3.23-3.3-7.24-5.84-11.73-7.32v-29.13c0-7.18-5.83-13-13.02-13.02h-9.25c4.86,0,8.84,3.75,9.22,8.51v32.15s-.04,0-.06,0h-11.35c-.25-.04-.5-.06-.76-.06-2.56,0-4.62,2.07-4.62,4.61s2.07,4.61,4.62,4.61,4.62-2.07,4.62-4.61c0-1.29-.53-2.45-1.39-3.29h8.93v28.68h22.3c-5.07,0-9.18-4.06-9.25-9.1h0v-18.03c3.98,1.38,7.56,3.64,10.49,6.53-3.6,1.74-5.4,4.06-5.4,8.32,0,8.64,7.21,12.17,13.68,12.33-1.4,12.35-14.45,24.85-27.89,25.14-.66.01-3.99.05-8.11-1.19-5.08-1.53-9.54-4.45-12.95-8.32v.02s-13.22-15.73-13.22-15.73h-1.43v-1.71l-18.73-22.32h0s0-.01,0-.01V12.8c-.06-7.08-5.83-12.8-12.95-12.8s-12.89,5.72-12.95,12.8c0,2.54,2.07,4.61,4.62,4.61s4.62-2.07,4.62-4.61-2.07-4.61-4.62-4.61c-1.18,0-2.25.44-3.07,1.17,1.52-4.83,6.05-8.35,11.39-8.35,6.55,0,11.87,5.27,11.93,11.79v.11c0,6.57-5.34,11.9-11.94,11.9h-.11v23.39c-1.57-.44-3.22-.69-4.93-.69-9.94,0-17.99,8.03-17.99,17.94,0,9.07,6.76,16.56,15.52,17.77,0,0,0,0,0,0,.81.11,1.63.17,2.47.17,9.94,0,17.99-8.03,17.99-17.93v-4.14l-11.68-13.92.97-.8h0l-.96.8,11.68,13.92h0s32.41,38.62,32.41,38.62h.02c5.37,6.09,13.24,9.94,22.02,9.94,14.12,0,27.76-13.5,29.16-26.42l-1.25-.02c0-.26.01-.51.01-.77ZM18.4,82.13h0c-.14,0-.27.01-.41.01h0c-9.25,0-16.74-7.47-16.74-16.69s7.49-16.68,16.74-16.68c1.72,0,3.37.26,4.93.74v25.74c-.34,2.94-2.07,5.46-4.52,6.89ZM25.27,46.59l4.41,5.26-4.42-5.26h0Z"/>
      <path class="cls-1" d="M156.39,82.22c-1.42-.68-2.35-1.48-2.6-1.7-.82-.73-1.35-1.42-1.59-1.75-.4-.55-.67-1.06-.87-1.45-.47-.86-.71-1.59-.84-2-.37-1.17-.5-2.2-.55-2.93-.06-5.45-.12-10.9-.18-16.35,0-7.57-1.96-13.42-5.9-17.36-6.01-6-13.75-5.93-17.49-5.91-3.14.02-7.3.11-11.28,2.95-3.35,2.39-4.92,5.56-5.6,7.23.06-.05.12-.1.18-.15-.21.53-.32,1.11-.32,1.72,0,2.52,1.91,4.64,4.62,4.64s4.65-2.13,4.65-4.64-1.94-4.6-4.65-4.6c-1.18,0-2.2.41-2.99,1.07,2.36-4.02,6.31-6.7,10.68-7,.89-.06,6.03-.3,9.62,3.55,1.88,2.02,2.92,4.86,2.92,8.47,0,9.27-7.21,11.56-13.05,13.32-4.03,1.05-7.32,1.92-9.87,2.96,5.15,5.26,8.34,12.45,8.34,20.39,0,.27,0,.53-.01.79,5.81-.25,12.24-3.21,14.29-8.83.08,2.93.17,5.86.25,8.8,4.88-.02,8.81-.02,11.54-.02,2.67,0,4.41.01,6.97.02h8.57c-1.22-.06-2.97-.31-4.82-1.19h-.01ZM133.78,73.42c-.15,1.66-2.82,6.71-7.26,6.71-3.23,0-6-2.92-6-10.83,0-5.25,1.15-8.69,1.78-9.78,5.53-1.92,9.76-4.06,11.48-8.32v22.22Z"/>
      <path class="cls-1" d="M54.73,21.85v59.83l1.43,1.71h20.86c-4.99,0-9.04-3.94-9.23-8.87V25.82c0-7.18-5.84-13.01-13.05-13.02h-9.25c5.05,0,9.15,4.04,9.24,9.06Z"/>
      <path class="cls-1" d="M171.71,25.9c4.44,0,7.52-3.44,7.52-7.5s-3.13-7.44-7.52-7.44-7.47,3.38-7.47,7.44,3.08,7.5,7.47,7.5Z"/>
      <path class="cls-1" d="M186.81,82.72c-.81-.26-1.5-.58-2.07-.89-.3-.16-.73-.4-1.2-.74-.54-.39-1.52-1.19-2.43-2.48-.27-.38-.64-.96-.97-1.73h.01c-.22-.51-.44-1.09-.63-1.74,0,0-.35-1.27-.46-2.63-.13-1.71-.21-17.06-.14-38.04-3.76,0-7.52.01-11.28.02-5.21,0-10.41-.01-15.61-.02.68.05,1.36.11,2.04.16.93.15,3.96.78,6.42,3.48,2.26,2.49,2.71,5.25,2.82,6.22-.15,12.75-.15,25.56,0,38.4,0,.12,0,.54,0,.66,5.97-.01,11.94-.02,17.91-.04.73,0,1.47-.02,2.2-.02.76,0,1.53-.01,2.29-.01h4.42c-.89-.04-2.04-.17-3.32-.59Z"/>
    </g>
  </g>
</svg>